<svg xmlns="http://www.w3.org/2000/svg" viewBox="0 0 157.2 247.35"><defs><style>.cls-1{fill:#fff;}</style></defs><g id="图层_2" data-name="图层 2"><g id="图层_1-2" data-name="图层 1"><path class="cls-1" d="M156.44,72.06V92.89c-2.35-11.24-14.44-46.35-74.39-54-1.06-.16-1.76-.23-2-.25l2,.25c6.09.94,24,5.13,30,22.4-4.83-12.8-18-22-33.51-22H42.39C19,39.26,0,21.72,0,.08A.08.08,0,0,1,.08,0H78.49C121.54,0,156.44,32.26,156.44,72.06Z"/><path class="cls-1" d="M156.44,92.89V112a50.08,50.08,0,0,1-16.5,37.13,57.37,57.37,0,0,1-39.48,14.68l-41.86-.49h-.19a14.31,14.31,0,0,0-9.73,3.72c-.17.16-.33.31-.49.48l0,0a12.73,12.73,0,0,0-3.57,8.92v31.68c0,21.64-19,39.18-42.39,39.18a.08.08,0,0,1-.09-.07V176.84A51,51,0,0,1,19,139,58.28,58.28,0,0,1,59.14,124.1l5.21.05,36.65.44h.33a13.45,13.45,0,0,0,6.37-1.65l0,0a13,13,0,0,0,2.44-1.76,11.5,11.5,0,0,0,2.74-3.82v0a11.88,11.88,0,0,0,1-4.88V72.06a30.69,30.69,0,0,0-2-10.8C106,44,88.14,39.8,82.05,38.86,142,46.54,154.09,81.65,156.44,92.89Z"/><path class="cls-1" d="M58.05,163.59c-2.84-.07-6.22,1.48-9.86,4l0,0c-1.39.94-2.82,2-4.28,3.22-18.41,15-41.77,48.43-41.77,48.43L1.06,179c2.83-52.35,52.38-55,52.38-55l10.91.15,35.81.51,1.12-.07h0a17.86,17.86,0,0,0,6.37-1.65l0,0a10.19,10.19,0,0,0,5.18-5.58v0a9.7,9.7,0,0,0,.67-3.76L114,74.3v-.51a37.87,37.87,0,0,0-2-12.53C106,44,88.14,39.8,82.05,38.86c60,7.68,72,42.79,74.39,54a28.54,28.54,0,0,1,.55,3.47C161.77,179.63,84.94,164.25,58.05,163.59Z"/></g></g></svg>